<?xml version="1.0" encoding="utf-8"?>
<!-- Generator: Adobe Adobe Illustrator 24.2.0, SVG Export Plug-In . SVG Version: 6.00 Build 0)  -->
<svg version="1.1" id="Layer_1" xmlns="http://www.w3.org/2000/svg" xmlns:xlink="http://www.w3.org/1999/xlink" x="0px" y="0px"
	 viewBox="0 0 1920 1080" style="enable-background:new 0 0 1920 1080;" xml:space="preserve">
<style type="text/css">
	.st0{fill:url(#SVGID_1_);}
	.st1{fill:url(#SVGID_2_);}
	.st2{fill:url(#SVGID_3_);}
	.st3{fill:url(#SVGID_4_);}
	.st4{fill:url(#SVGID_5_);}
	.st5{fill:url(#SVGID_6_);}
	.st6{fill:url(#SVGID_7_);}
	.st7{fill:url(#SVGID_8_);}
	.st8{fill:url(#SVGID_9_);}
	.st9{fill:url(#SVGID_10_);}
	.st10{fill:url(#SVGID_11_);}
	.st11{fill:url(#SVGID_12_);}
	.st12{fill:url(#SVGID_13_);}
	.st13{fill:url(#SVGID_14_);}
	.st14{fill:url(#SVGID_15_);}
	.st15{fill:url(#SVGID_16_);}
	.st16{fill:url(#SVGID_17_);}
	.st17{fill:url(#SVGID_18_);}
	.st18{fill:url(#SVGID_19_);}
	.st19{fill:url(#SVGID_20_);}
	.st20{fill:url(#SVGID_21_);}
	.st21{fill:url(#SVGID_22_);}
	.st22{fill:url(#SVGID_23_);}
	.st23{fill:url(#SVGID_24_);}
	.st24{fill:url(#SVGID_25_);}
	.st25{fill:url(#SVGID_26_);}
</style>
<g>
	
		<linearGradient id="SVGID_1_" gradientUnits="userSpaceOnUse" x1="579.6644" y1="320.7543" x2="647.4999" y2="320.7543" gradientTransform="matrix(1 0 0 1 -3.449499e-05 9.910887e-05)">
		<stop  offset="0" style="stop-color:#36CCEB"/>
		<stop  offset="1" style="stop-color:#5436EB"/>
	</linearGradient>
	<path class="st0" d="M604.53,267.05c-7.28,7.04-11.67,16.49-15.48,25.88c-5.44,13.43-10.08,27.62-9.3,42.09
		c0.78,14.47,7.97,29.35,20.95,35.78c6.97,3.46,15.16,4.3,22.72,3.22c4.31-0.53,6.4-1.88,9.61-3.54c5.8-3,9.65-9.55,11.96-15.22
		c1.48-3.64,2.51-8.1,2.51-12.04c0-0.83-0.1-1.75-0.22-2.7c-0.14-1.04-0.3-1.76-0.41-2.78c-0.23-2.16-2.27-6.26-2.86-7.68
		c-2.61-6.29-6.79-10.1-11.06-15.16c-1.88-2.22-5.05-5.78-6.98-7.95c-3.39-3.8-6.53-7.82-9.67-11.83
		C610.07,287.16,603.52,278.25,604.53,267.05z"/>
	
		<linearGradient id="SVGID_2_" gradientUnits="userSpaceOnUse" x1="579.6646" y1="320.7548" x2="647.5001" y2="320.7548" gradientTransform="matrix(0.7071 0.7071 -0.7071 0.7071 341.2364 -363.6271)">
		<stop  offset="0" style="stop-color:#36CCEB"/>
		<stop  offset="1" style="stop-color:#5436EB"/>
	</linearGradient>
	<path class="st1" d="M579.87,252.67c-10.13-0.17-19.92,3.41-29.24,7.35c-13.34,5.64-26.66,12.41-36.34,23.19
		c-9.68,10.78-15.12,26.38-10.49,40.11c2.49,7.38,7.68,13.76,13.79,18.34c3.42,2.67,5.85,3.2,9.3,4.3
		c6.23,1.98,13.57,0.07,19.22-2.3c3.62-1.53,7.5-3.96,10.28-6.74c0.59-0.59,1.17-1.31,1.75-2.06c0.64-0.83,1.03-1.46,1.67-2.26
		c1.36-1.69,2.82-6.04,3.41-7.45c2.6-6.29,2.34-11.94,2.89-18.54c0.24-2.9,0.52-7.66,0.69-10.56c0.29-5.09,0.91-10.15,1.53-15.2
		C569.56,270.81,571.24,259.88,579.87,252.67z"/>
	
		<linearGradient id="SVGID_3_" gradientUnits="userSpaceOnUse" x1="579.6647" y1="320.7546" x2="647.5002" y2="320.7546" gradientTransform="matrix(0 1 -1 0 839.6496 -379.46)">
		<stop  offset="0" style="stop-color:#36CCEB"/>
		<stop  offset="1" style="stop-color:#5436EB"/>
	</linearGradient>
	<path class="st2" d="M572.6,225.07c-7.04-7.28-16.49-11.67-25.88-15.48c-13.43-5.44-27.62-10.08-42.09-9.3
		c-14.47,0.78-29.35,7.97-35.78,20.95c-3.46,6.97-4.3,15.16-3.22,22.72c0.53,4.31,1.88,6.4,3.54,9.61c3,5.8,9.55,9.65,15.22,11.96
		c3.64,1.48,8.1,2.51,12.04,2.51c0.83,0,1.75-0.1,2.7-0.22c1.04-0.14,1.76-0.3,2.78-0.41c2.16-0.23,6.26-2.27,7.68-2.86
		c6.29-2.61,10.1-6.79,15.16-11.06c2.22-1.88,5.78-5.05,7.95-6.98c3.8-3.39,7.82-6.53,11.83-9.67
		C552.48,230.61,561.4,224.06,572.6,225.07z"/>
</g>
<linearGradient id="SVGID_4_" gradientUnits="userSpaceOnUse" x1="565.875" y1="221.6636" x2="686.7925" y2="221.6636">
	<stop  offset="0" style="stop-color:#D62929"/>
	<stop  offset="1" style="stop-color:#D629D3"/>
</linearGradient>
<path class="st3" d="M668.71,190.17c-17.17-18.59-43.23-27.4-68.54-27.23c-6.49,0.04-13.3,0.9-19.61,2.68
	c-14.33,4.05-19.46,21.72-9.57,32.85l59.96,67.46c5.05,5.68,10.51,11.63,17.82,13.71c13.15,3.74,26.54-6.84,32.54-19.13
	C692.41,237.75,685.88,208.76,668.71,190.17z M641.94,245.66c-1.2,1.19-3.32,1.25-4.51,0c-12.38-13-25.23-26.14-36.51-40.16
	c-1.24-1.3-2.47-2.6-3.75-3.86c-0.62-0.61-0.87-1.29-0.89-1.96c-0.4-0.97-0.25-2.09,0.85-2.98c13.2-10.66,34.74-10.78,46.64,2.26
	C655.66,211.98,654.1,233.55,641.94,245.66z"/>
<linearGradient id="SVGID_5_" gradientUnits="userSpaceOnUse" x1="664.0189" y1="210.5916" x2="758.8983" y2="210.5916" gradientTransform="matrix(0.9992 -0.0393 0.0393 0.9992 -5.236 14.0536)">
	<stop  offset="0" style="stop-color:#D62929"/>
	<stop  offset="1" style="stop-color:#D629D3"/>
</linearGradient>
<path class="st4" d="M757.72,186.49c-4.33-8.63-13.15-15.37-22.81-15.37c-7.79,0-14.92,4.16-21.38,8.51
	c3.06-8.15,4.93-17.11,2.84-25.56c-2.08-8.45-8.91-16.16-17.56-17.11c-4.6-0.51-9.21,0.87-13.44,2.75
	c-6.78,3.01-13.13,7.52-16.95,13.87c-3.83,6.36-4.7,14.71,0.07,20.64c15.62,19.42,27.04,42.21,33.24,66.35
	c1.69,6.6,4.19,14.55,10.84,16.03c3.55,0.79,7.27-0.7,10.13-2.94c8-6.27,10.04-18.92,4.42-27.39c-3.13-4.73-8.06-7.94-11.79-12.22
	s-6.15-10.73-3.17-15.55c2.91-4.7,9.86-5.48,14.81-3.01c4.95,2.47,8.25,7.3,10.95,12.13c2.7,4.83,5.09,9.97,9.04,13.84
	c1.91,1.87,4.44,3.49,7.09,3.11c4.22-0.6,6.13-5.56,6.82-9.77C762.45,205.27,762.06,195.11,757.72,186.49z M689.83,176.34
	c-0.29,0.03-0.55,0.01-0.8-0.04c-0.82-0.06-1.64-0.45-2.24-1.32c-2.25-3.27-4.38-6.61-6.65-9.87c-0.52-0.75-0.62-1.48-0.46-2.13
	c-0.03-0.67,0.14-1.35,0.59-1.91c4.73-5.96,18.42-11.88,23-2.68C707.76,167.35,697.74,175.42,689.83,176.34z"/>
<linearGradient id="SVGID_6_" gradientUnits="userSpaceOnUse" x1="734.6943" y1="273.0093" x2="773.5784" y2="273.0093" gradientTransform="matrix(0.9711 -0.2387 0.2387 0.9711 -14.8451 96.4433)">
	<stop  offset="0" style="stop-color:#D62929"/>
	<stop  offset="1" style="stop-color:#D629D3"/>
</linearGradient>
<path class="st5" d="M763.2,154.35c-4.83,1.81-6.6,7.53-3.92,11.71c4.18,6.51,7.78,13.37,10.74,20.48
	c3.5,8.41,6.71,17.9,14.83,22.45c3.2,1.79,7.21,2.62,10.72,1.31c4.11-1.53,6.64-5.61,7.89-9.68c2.29-7.45,1.18-15.75-2.98-22.28
	c-1.74-2.74-3.98-5.15-6.2-7.55c-5.78-6.24-11.85-12.68-19.94-15.79c-3.49-1.34-7.48-1.99-11.04-0.71
	C763.27,154.32,763.23,154.33,763.2,154.35z"/>
<linearGradient id="SVGID_7_" gradientUnits="userSpaceOnUse" x1="714.5142" y1="226.5932" x2="736.1" y2="226.5932" gradientTransform="matrix(0.9711 -0.2387 0.2387 0.9711 -14.9201 96.0632)">
	<stop  offset="0" style="stop-color:#D62929"/>
	<stop  offset="1" style="stop-color:#D629D3"/>
</linearGradient>
<path class="st6" d="M737.21,134.16c-2.06,1.17-3.47,3.25-4.07,5.47c-0.6,2.22-0.44,4.57,0.1,6.78c0.72,2.89,2.38,5.85,5.29,6.83
	c1.52,0.51,3.2,0.41,4.81,0.22c1.7-0.2,3.43-0.51,4.91-1.35c1.94-1.09,3.26-2.98,4.21-4.94c1.78-3.68,2.26-8.43-0.55-11.35
	c-1.45-1.51-3.57-2.29-5.7-2.58C743.32,132.84,739.97,132.59,737.21,134.16z"/>
<linearGradient id="SVGID_8_" gradientUnits="userSpaceOnUse" x1="786.3008" y1="165.7833" x2="863.1625" y2="165.7833" gradientTransform="matrix(1 0 0 1 1.7417 -0.7991)">
	<stop  offset="0" style="stop-color:#D62929"/>
	<stop  offset="1" style="stop-color:#D629D3"/>
</linearGradient>
<path class="st7" d="M851.18,163.61c9.33-1.27,15.19-12.12,13.41-21.36c-1.79-9.24-9.33-16.48-17.76-20.67
	c-14.95-7.43-33.66-6.69-47.98,1.9c-6.1,3.66-11.89,9.97-10.63,16.96c1.38,7.67,9.97,11.25,15.96,16.23
	c10.65,8.86,13.77,23.58,17.78,36.84c1.56,5.15,3.43,10.38,7,14.41s9.24,6.62,14.42,5.16c4.19-1.18,9.51-6.16,9.3-11.67
	c-0.21-5.51-3.66-10.26-6.38-15.06c-2.39-4.21-4.3-8.71-5.67-13.35c-0.57-1.95-1.03-4.13-0.11-5.93
	C842.31,163.58,847.3,164.13,851.18,163.61z M832.06,157.22c-8.75-0.32-15.33-7.31-20.56-13.56c-1.47-1.76-0.44-4.01,1.12-4.76
	c6.84-5.2,16.59-10.06,25.22-6.83c6.07,2.28,11.34,8.57,9.48,15.37C845.55,153.88,838.34,157.45,832.06,157.22z"/>
<linearGradient id="SVGID_9_" gradientUnits="userSpaceOnUse" x1="649.2031" y1="369.3354" x2="760.2031" y2="369.3354" gradientTransform="matrix(0.996 -0.0892 0.0892 0.996 -24.5217 30.722)">
	<stop  offset="0" style="stop-color:#D62929"/>
	<stop  offset="1" style="stop-color:#D629D3"/>
</linearGradient>
<path class="st8" d="M672.25,291.59c-3.02-2.92-8.77-3.39-12.5-1.76c-6.08,2.65-8.54,10.79-7.66,17.8
	c0.88,7.01,4.23,13.36,6.68,19.95c4.46,11.98,6,25.16,4.41,37.88c-0.88,7.05-2.7,14.13-1.65,21.17c1.05,7.04,6.2,14.18,12.85,14.05
	c1.93-0.04,3.81-0.68,5.52-1.63c9.24-5.1,12.41-17.77,11.71-28.93c-0.7-11.16-4.26-22.03-4.46-33.21c-0.06-3.61,0.3-7.46,2.81-10.05
	c1.28-1.32,3.07-2.02,4.83-1.7c5.4,0.97,3.18,9.31,11.63,7.66c0.9-0.17,1.77-0.6,2.4-1.3c5.24-5.78-2.75-17,2.55-22.39
	c2.24-2.28,5.79-2.3,8.38-0.4c4.74,3.47,5.67,9.33,7.06,14.74c2.36,9.14,6.45,17.79,11.95,25.26c4.34,5.89,10.63,11.54,18.01,8.43
	c2.94-1.24,5.27-3.71,6.78-6.67c5.21-10.18,2.14-22.57-3.76-32c-5.27-8.42-12.59-15.09-19.24-22.3
	c-5.33-5.77-10.34-12.02-16.66-16.49c-6.32-4.48-14.37-7.01-21.47-4.42c-2.16,0.79-4.23,2.08-5.53,4.08
	c-3.73,5.7-0.48,15.53-7.63,18.4c-2.33,0.94-4.95,0.68-7.23-0.44C678,295.33,672.83,292.16,672.25,291.59z"/>
<linearGradient id="SVGID_10_" gradientUnits="userSpaceOnUse" x1="693.1019" y1="253.8588" x2="770.9982" y2="253.8588" gradientTransform="matrix(1.1436 0.1113 -0.1055 1.0839 -33.7392 -67.321)">
	<stop  offset="0" style="stop-color:#D62929"/>
	<stop  offset="1" style="stop-color:#D629D3"/>
</linearGradient>
<path class="st9" d="M736.75,265.14c-3.26,1.83-4.01,6.22-2.71,9.63c1.3,3.41,4.13,6.06,6.84,8.62
	c14.95,14.11,29.58,30.21,33.36,49.83c0.43,2.24,0.88,4.77,2.83,6.1c2.46,1.67,6.01,0.45,8.07-1.61c2.06-2.06,3.22-4.79,5.08-7.02
	c3.46-4.14,8.97-6.13,14.15-8.07s10.63-4.25,13.62-8.71c2.99-4.46,2.05-11.66-3.17-13.64c-3.08-1.17-6.56-0.21-9.59,1.02
	c-3.29,1.35-6.43,3.03-9.35,5c-4.16,2.82-9.28,6.42-13.85,4.15c-2.34-1.16-3.65-3.55-4.81-5.8c-1.15-2.23-2.3-4.46-3.46-6.69
	c-0.76-1.47-1.54-3.04-1.33-4.65c0.5-3.79,5.5-4.93,9.2-6.4c4.14-1.65,7.59-4.79,9.49-8.65c1.33-2.68,1.83-6.08-0.03-8.49
	c-2.03-2.62-6.14-3.01-9.32-1.89c-3.18,1.12-5.72,3.4-8.35,5.43c-2.61,2.01-5.53,3.88-8.88,4.33c-3.34,0.45-7.18-0.88-8.61-3.81
	c-1.5-3.06,0.07-6.73,2.47-9.18c2.4-2.45,5.54-4.14,8.09-6.45c3.17-2.87,5.39-6.89,5.21-11.07s-3.16-8.36-7.44-9.4
	c-2.37-0.58-4.9-0.18-7.16,0.68c-5.97,2.27-10.1,7.51-13.06,12.92S739.73,263.47,736.75,265.14z"/>
<linearGradient id="SVGID_11_" gradientUnits="userSpaceOnUse" x1="606.7961" y1="448.4231" x2="697.0416" y2="448.4231">
	<stop  offset="0" style="stop-color:#D62929"/>
	<stop  offset="1" style="stop-color:#D629D3"/>
</linearGradient>
<path class="st10" d="M696.78,443.19c-1.66-14.19-11.59-26.82-24.49-32.96c-11.69-5.57-33.78-5.69-40.23-2.23
	c-5.17,1.75-10.39,5.01-13.24,8.33c-9.07,10.57-13.66,25.07-11.49,38.83s11.34,26.41,24.09,32.01c5.75,2.53,12.05,3.64,18.32,3.93
	c10.77,0.51,22.1-1.55,30.56-8.23c3.24-2.56,5.97-5.72,8.3-9.13C694.67,464.85,698.04,453.89,696.78,443.19z M650.88,468.33
	c-11.11,0.53-21.31-8.84-22.16-19.78c-0.84-10.75,7.85-22.13,19.03-22.36c0.23,0,0.45,0.01,0.66,0.05c0.32-0.1,0.67-0.17,1.08-0.16
	c10.76,0.35,20.94,8.88,21.37,20.04C671.29,457,661.91,467.81,650.88,468.33z"/>
<linearGradient id="SVGID_12_" gradientUnits="userSpaceOnUse" x1="711.4777" y1="419.8822" x2="782.0457" y2="419.8822" gradientTransform="matrix(0.9958 0.0911 -0.0911 0.9958 37.8119 -31.2589)">
	<stop  offset="0" style="stop-color:#D62929"/>
	<stop  offset="1" style="stop-color:#D629D3"/>
</linearGradient>
<path class="st11" d="M735,452.95c1.04-8.93,0.7-18.01-1.02-26.88c-1.06-5.48-3.89-11.96-9.91-12.69c-3.89-0.47-7.6,1.9-9.59,4.96
	c-1.99,3.06-2.6,6.69-3.18,10.22c-1.99,12.2-3.99,24.47-3.79,36.84c0.1,6.05,0.8,12.32,4.13,17.59c4.9,7.74,15.06,12.01,24.75,11.73
	c9.69-0.28,18.8-4.6,25.84-10.6c18.18-15.5,22.35-43.06,9.52-62.94c-0.94-1.46-2.01-2.93-3.55-3.88
	c-4.54-2.81-10.79,0.13-13.92,4.15c-5.05,6.5-5.48,15-6.75,22.93s-4.27,16.57-12.01,20.26C734.35,461.42,734.39,458.19,735,452.95z"
	/>
<linearGradient id="SVGID_13_" gradientUnits="userSpaceOnUse" x1="739.8488" y1="338.0812" x2="833.7228" y2="338.0812" gradientTransform="matrix(0.986 0.1669 -0.1669 0.986 60.2988 -56.4437)">
	<stop  offset="0" style="stop-color:#D62929"/>
	<stop  offset="1" style="stop-color:#D629D3"/>
</linearGradient>
<path class="st12" d="M815.9,438.76l-7.98-25.27c-1.34-4.26-2.7-8.83-1.43-13.11c1.62-5.47,6.95-8.8,11.36-12.41
	c7.76-6.35,13.75-17.83,8.08-26.1c-4.54-6.61-14.37-7.33-21.83-4.39c-7.46,2.94-13.48,8.59-20.24,12.91
	c-12.19,7.79-26.53,11.1-38.13,11.92c-0.92,0.3-1.87,0.5-2.82,0.74c-0.46,0.12-0.91,0.14-1.34,0.09c-0.67,0.32-1.36,0.6-1.98,0.88
	c-0.11,0.05-0.22,0.08-0.34,0.11c-3.34,3.01-5.2,7.66-4.68,12.14c0.63,5.38,4.64,10.2,9.82,11.8c10.49,3.24,20.32-6.06,30.84-9.23
	c1.59-0.48,3.31-0.81,4.88-0.26c1.54,0.54,2.67,1.84,3.58,3.19c4.18,6.23,4.91,14.07,5.51,21.54c0.65,8.04,1.3,16.09,1.95,24.13
	c0.49,6.09,1.03,12.36,4.64,17.52c1.1,1.57,2.49,2.95,4.12,3.96c9.04,5.58,17.43-2.4,18.87-10.73
	C819.91,451.67,817.89,445.07,815.9,438.76z"/>
<linearGradient id="SVGID_14_" gradientUnits="userSpaceOnUse" x1="831.5941" y1="390.588" x2="925.2935" y2="390.588" gradientTransform="matrix(0.4709 -0.8822 0.8822 0.4709 286.3214 932.1685)">
	<stop  offset="0" style="stop-color:#D62929"/>
	<stop  offset="1" style="stop-color:#D629D3"/>
</linearGradient>
<path class="st13" d="M1037.42,299.34c-19.02,4.69-34.33,19.45-43.11,37.22c-2.25,4.55-4.05,9.66-5.03,14.76
	c-2.22,11.61,8.31,22.16,19.56,19.62l68.17-15.39c5.74-1.3,11.81-2.77,15.83-7.07c7.24-7.73,4.56-21.25-1.9-30.28
	C1078.97,301.49,1056.44,294.65,1037.42,299.34z M1066.73,339.89c0.41,1.31-0.3,2.81-1.58,3.15c-13.43,3.54-27.11,7.36-40.86,9.73
	c-1.34,0.36-2.69,0.71-4.01,1.1c-0.64,0.19-1.21,0.1-1.68-0.15c-0.82-0.1-1.55-0.65-1.78-1.77c-2.8-13.42,4.7-28.54,17.98-31.73
	C1048.06,317.05,1062.56,326.63,1066.73,339.89z"/>
<linearGradient id="SVGID_15_" gradientUnits="userSpaceOnUse" x1="901.2484" y1="392.1027" x2="974.8608" y2="392.1027" gradientTransform="matrix(0.4359 -0.9 0.9 0.4359 296.2534 943.4058)">
	<stop  offset="0" style="stop-color:#D62929"/>
	<stop  offset="1" style="stop-color:#D629D3"/>
</linearGradient>
<path class="st14" d="M1066.17,235.64c-7.54-0.36-15.35,3.15-18.75,9.9c-2.74,5.45-2.35,12.07-1.58,18.3
	c-4.61-5.35-10.21-10.18-16.84-12.05c-6.63-1.87-14.41-0.13-18.12,5.55c-1.97,3.02-2.63,6.78-2.81,10.48
	c-0.29,5.93,0.63,12.14,3.72,17.32c3.09,5.18,8.61,9.07,14.43,8.07c19.05-3.28,38.97-2.3,57.99,2.87c5.2,1.41,11.62,2.8,15-1.27
	c1.8-2.17,2.07-5.36,1.51-8.24c-1.57-8.06-9.67-14.46-17.56-13.87c-4.4,0.33-8.38,2.51-12.67,3.43s-9.65,0.08-11.97-3.9
	c-2.26-3.89-0.36-9.05,3.11-11.54c3.47-2.49,8-2.9,12.31-2.88c4.32,0.01,8.74,0.36,12.84-0.87c1.98-0.6,3.99-1.73,4.67-3.74
	c1.07-3.19-1.73-6.47-4.42-8.61C1080.94,239.73,1073.71,236.01,1066.17,235.64z M1035.2,279.13c-0.08,0.21-0.19,0.39-0.31,0.54
	c-0.33,0.55-0.89,0.97-1.71,1.04c-3.07,0.29-6.16,0.46-9.23,0.76c-0.7,0.07-1.25-0.15-1.65-0.52c-0.48-0.24-0.89-0.63-1.13-1.16
	c-2.49-5.65-1.81-17.55,6.22-17.14C1035.24,263.06,1037.35,273.24,1035.2,279.13z"/>
<linearGradient id="SVGID_16_" gradientUnits="userSpaceOnUse" x1="909.9995" y1="494.2247" x2="940.1398" y2="494.2247" gradientTransform="matrix(0.2467 -0.9691 0.9691 0.2467 364.4102 990.6819)">
	<stop  offset="0" style="stop-color:#D62929"/>
	<stop  offset="1" style="stop-color:#D629D3"/>
</linearGradient>
<path class="st15" d="M1045.66,219.17c-0.44,4.09,2.93,7.58,6.8,7.35c6.01-0.36,12.06-0.18,18.07,0.55
	c7.1,0.86,14.85,2.35,20.89-1.54c2.38-1.53,4.36-4.01,4.68-6.98c0.37-3.48-1.58-6.85-3.98-9.33c-4.39-4.53-10.57-7.02-16.59-6.68
	c-2.53,0.14-4.99,0.75-7.45,1.36c-6.39,1.59-13.02,3.3-18.03,7.73c-2.16,1.91-4.02,4.45-4.38,7.44
	C1045.67,219.11,1045.67,219.14,1045.66,219.17z"/>
<linearGradient id="SVGID_17_" gradientUnits="userSpaceOnUse" x1="970.9183" y1="384.183" x2="996.1905" y2="384.183" gradientTransform="matrix(0.9537 -0.3009 0.3009 0.9537 -26.778 147.8176)">
	<stop  offset="0" style="stop-color:#D62929"/>
	<stop  offset="1" style="stop-color:#D629D3"/>
</linearGradient>
<path class="st16" d="M1018.78,208.79c-2.33,1.49-3.83,3.96-4.37,6.53c-0.54,2.57-0.19,5.22,0.62,7.69
	c1.05,3.23,3.21,6.47,6.69,7.36c1.82,0.46,3.77,0.23,5.65-0.11c1.97-0.36,3.98-0.84,5.66-1.91c2.19-1.39,3.6-3.63,4.57-5.93
	c1.81-4.31,2.03-9.74-1.47-12.85c-1.81-1.61-4.35-2.33-6.87-2.5C1025.83,206.83,1021.89,206.8,1018.78,208.79z"/>
<linearGradient id="SVGID_18_" gradientUnits="userSpaceOnUse" x1="1004.5743" y1="342.097" x2="1064.5967" y2="342.097" gradientTransform="matrix(0.4709 -0.8822 0.8822 0.4709 286.4366 930.2557)">
	<stop  offset="0" style="stop-color:#D62929"/>
	<stop  offset="1" style="stop-color:#D629D3"/>
</linearGradient>
<path class="st17" d="M1083.07,161.29c2.39-7.02-3.11-15.4-10.19-17.78c-7.08-2.39-14.78,0.04-20.67,4.29
	c-10.44,7.53-16.51,20.91-15.55,34.3c0.41,5.7,2.77,12.24,8.1,14.11c5.84,2.05,11.36-2.54,16.94-4.77
	c9.93-3.96,21.29-0.35,31.96,2.06c4.14,0.94,8.45,1.69,12.52,0.77s7.87-3.85,8.68-8.05c0.65-3.39-0.95-9.08-4.87-11.1
	c-3.92-2.02-8.45-1.48-12.75-1.46c-3.78,0.01-7.59-0.42-11.31-1.29c-1.56-0.36-3.24-0.9-4.18-2.26
	C1079.93,167.48,1082.07,164.21,1083.07,161.29z M1071.89,172.14c-3.3,5.99-10.49,7.84-16.69,9.04c-1.75,0.34-2.95-1.27-2.93-2.65
	c-1.22-6.83-1.19-15.56,4.1-20.33c3.72-3.35,9.97-4.56,14.06-0.58C1074.3,161.4,1074.26,167.84,1071.89,172.14z"/>
<linearGradient id="SVGID_19_" gradientUnits="userSpaceOnUse" x1="774.61" y1="32.0619" x2="871.8934" y2="32.0619" gradientTransform="matrix(-0.1542 0.988 -0.988 -0.1542 1457.2039 -596.5122)">
	<stop  offset="0" style="stop-color:#D62929"/>
	<stop  offset="1" style="stop-color:#D629D3"/>
</linearGradient>
<path class="st18" d="M1343.58,188.81c3.09-1.95,4.69-6.75,4.12-10.26c-0.93-5.73-7.23-9.51-13.29-10.23
	c-6.06-0.72-12.09,0.8-18.13,1.51c-10.99,1.29-22.36-0.15-32.67-4.16c-5.72-2.22-11.27-5.24-17.39-5.82
	c-6.13-0.58-13.2,2.31-14.49,7.99c-0.38,1.65-0.23,3.38,0.19,5.03c2.31,8.92,12.27,14.26,21.77,16c9.5,1.74,19.36,0.98,28.77,3.14
	c3.03,0.7,6.19,1.82,7.83,4.48c0.84,1.36,1.04,3.03,0.4,4.47c-1.96,4.39-8.47,0.76-8.89,8.28c-0.04,0.8,0.13,1.63,0.58,2.31
	c3.73,5.66,14.83,1.21,18.22,6.84c1.44,2.39,0.7,5.4-1.43,7.2c-3.91,3.31-9.02,2.87-13.85,2.93c-8.16,0.09-16.28,1.77-23.7,4.89
	c-5.86,2.46-11.92,6.63-10.88,13.55c0.42,2.76,1.99,5.25,4.15,7.16c7.42,6.55,18.46,6.53,27.61,3.49
	c8.17-2.72,15.31-7.55,22.76-11.7c5.97-3.32,12.26-6.28,17.35-10.72s8.92-10.75,8.25-17.33c-0.2-2-0.85-4.03-2.25-5.56
	c-3.99-4.36-12.91-3.65-13.8-10.33c-0.29-2.18,0.48-4.35,1.9-6.06C1339.23,192.92,1342.98,189.18,1343.58,188.81z"/>
<linearGradient id="SVGID_20_" gradientUnits="userSpaceOnUse" x1="709.8817" y1="9.2035" x2="778.0881" y2="9.2035" gradientTransform="matrix(-0.6691 1.1373 -1.0817 -0.6364 1829.694 -547.0949)">
	<stop  offset="0" style="stop-color:#D62929"/>
	<stop  offset="1" style="stop-color:#D629D3"/>
</linearGradient>
<path class="st19" d="M1360.62,266.92c-0.27-3.74-3.92-6.27-7.54-6.51s-7.22,1.23-10.68,2.63c-19.07,7.73-39.79,14.32-59.1,9.54
	c-2.21-0.55-4.67-1.2-6.7,0.03c-2.55,1.54-2.95,5.3-1.96,8.05c0.99,2.75,2.96,4.95,4.18,7.58c2.27,4.9,1.73,10.75,1.29,16.3
	s-0.67,11.49,2.09,16.09s9.66,6.76,13.65,2.83c2.36-2.32,2.97-5.9,3.14-9.18c0.18-3.57-0.01-7.14-0.56-10.63
	c-0.78-4.98-1.86-11.16,2.12-14.38c2.04-1.65,4.75-1.84,7.27-1.96c2.5-0.12,5-0.23,7.5-0.35c1.64-0.08,3.4-0.13,4.76,0.74
	c3.21,2.04,2.12,7.08,1.88,11.08c-0.27,4.47,1.11,8.93,3.78,12.29c1.86,2.33,4.71,4.22,7.68,3.53c3.22-0.75,5.32-4.34,5.65-7.72
	s-0.65-6.65-1.37-9.9c-0.71-3.23-1.15-6.68-0.14-9.92c1.01-3.24,3.84-6.18,7.08-6.26c3.4-0.08,6.05,2.89,7.24,6.1
	c1.2,3.22,1.39,6.79,2.39,10.09c1.25,4.1,3.94,7.81,7.79,9.4c3.85,1.59,8.88,0.62,11.63-2.85c1.52-1.92,2.24-4.4,2.42-6.82
	c0.48-6.4-2.5-12.36-6.13-17.34S1360.87,270.35,1360.62,266.92z"/>
<linearGradient id="SVGID_21_" gradientUnits="userSpaceOnUse" x1="1092.0239" y1="385.451" x2="1170.3639" y2="385.451" gradientTransform="matrix(0.9929 0.1188 -0.1188 0.9929 58.3859 -94.573)">
	<stop  offset="0" style="stop-color:#D62929"/>
	<stop  offset="1" style="stop-color:#D629D3"/>
</linearGradient>
<path class="st20" d="M1174.97,422.76c0-12.12-7.29-23.78-17.79-30.29c-9.51-5.89-28.54-8.28-34.45-6.03
	c-4.64,0.94-9.46,3.15-12.25,5.65c-8.88,7.97-14.3,19.7-13.82,31.52s7.11,23.41,17.54,29.45c4.7,2.72,10.02,4.31,15.39,5.2
	c9.23,1.54,19.2,0.97,27.17-3.78c3.05-1.82,5.72-4.2,8.07-6.83C1170.96,440.78,1174.97,431.9,1174.97,422.76z M1132.87,439.2
	c-9.63-0.7-17.47-9.64-17.11-18.95c0.36-9.14,9-17.83,18.66-16.87c0.2,0.02,0.39,0.06,0.56,0.11c0.29-0.05,0.6-0.07,0.94-0.02
	c9.24,1.4,17.15,9.64,16.4,19.08C1151.61,431.76,1142.43,439.9,1132.87,439.2z"/>
<linearGradient id="SVGID_22_" gradientUnits="userSpaceOnUse" x1="1175.5994" y1="313.6191" x2="1236.8588" y2="313.6191" gradientTransform="matrix(0.978 0.2088 -0.2088 0.978 99.6438 -121.1182)">
	<stop  offset="0" style="stop-color:#D62929"/>
	<stop  offset="1" style="stop-color:#D629D3"/>
</linearGradient>
<path class="st21" d="M1206.93,434.92c1.8-7.41,2.42-15.09,1.83-22.75c-0.36-4.72-2.15-10.47-7.26-11.71
	c-3.3-0.8-6.75,0.82-8.77,3.19s-2.92,5.37-3.77,8.28c-2.95,10.07-5.9,20.2-6.98,30.64c-0.53,5.1-0.55,10.46,1.79,15.24
	c3.44,7.02,11.77,11.67,20.15,12.43c8.38,0.77,16.67-1.93,23.34-6.26c17.23-11.18,23.6-33.96,14.55-52.03
	c-0.67-1.33-1.44-2.67-2.67-3.64c-3.63-2.83-9.31-1-12.41,2.06c-5.01,4.95-6.23,12.07-8.13,18.62c-1.9,6.55-5.35,13.52-12.39,15.82
	C1205.52,441.99,1205.87,439.27,1206.93,434.92z"/>
<linearGradient id="SVGID_23_" gradientUnits="userSpaceOnUse" x1="1192.5452" y1="204.7378" x2="1273.8171" y2="204.7378" gradientTransform="matrix(0.9592 0.2828 -0.2828 0.9592 124.9635 -143.4529)">
	<stop  offset="0" style="stop-color:#D62929"/>
	<stop  offset="1" style="stop-color:#D629D3"/>
</linearGradient>
<path class="st22" d="M1278.09,431.32l-4.33-22.1c-0.73-3.72-1.43-7.71,0.09-11.19c1.95-4.44,6.87-6.69,11.05-9.28
	c7.33-4.55,13.65-13.6,9.59-21.15c-3.24-6.04-11.65-7.65-18.37-5.95c-6.73,1.7-12.48,5.84-18.74,8.78
	c-11.29,5.3-23.99,6.62-34.06,6.11c-0.82,0.16-1.67,0.22-2.5,0.33c-0.4,0.05-0.8,0.02-1.17-0.07c-0.61,0.2-1.23,0.36-1.8,0.54
	c-0.1,0.03-0.2,0.04-0.3,0.06c-3.18,2.19-5.26,5.91-5.26,9.74c0,4.59,2.97,9.07,7.27,10.95c8.72,3.81,18.13-3.01,27.51-4.59
	c1.41-0.24,2.94-0.34,4.23,0.28c1.27,0.61,2.12,1.83,2.76,3.06c2.97,5.67,2.81,12.35,2.58,18.71c-0.25,6.84-0.5,13.68-0.75,20.52
	c-0.19,5.18-0.36,10.52,2.23,15.24c0.79,1.44,1.85,2.74,3.16,3.76c7.23,5.63,15.26-0.22,17.35-7.09
	C1280.24,442.6,1279.17,436.83,1278.09,431.32z"/>
<linearGradient id="SVGID_24_" gradientUnits="userSpaceOnUse" x1="1101.0605" y1="284.9648" x2="1260.3859" y2="255.1817" gradientTransform="matrix(0.9979 -0.0645 0.0645 0.9979 -18.0833 50.9922)">
	<stop  offset="0" style="stop-color:#36CCEB"/>
	<stop  offset="1" style="stop-color:#5436EB"/>
</linearGradient>
<path class="st23" d="M1264.53,258.45c-11.15-59-59.58-103.13-87.05-151.27c-28.7,45.2-47.97,96.02-59.74,148.25
	c-7.56,33.56-10.95,72.31,10.76,99c23.93,29.43,72.66,30.5,102.36,6.91C1260.56,337.76,1271.58,295.72,1264.53,258.45z
	 M1148.92,345.55c-16.04-7.29-24.98-27.45-24.42-44.28c0.12-3.71,5.87-3.72,5.78,0c-0.43,16.72,8.28,30.01,21.43,39.51
	C1154.61,342.88,1152.17,347.03,1148.92,345.55z M1198.93,355.97c-12.54,5.11-27.42,2.1-39.18-3.59c-3.22-1.56-0.4-6.32,2.8-4.79
	c11.6,5.54,22.59,5.63,34.96,3.25C1200.94,350.17,1202.06,354.69,1198.93,355.97z"/>
<linearGradient id="SVGID_25_" gradientUnits="userSpaceOnUse" x1="740.2493" y1="795.1064" x2="973.1588" y2="751.5681" gradientTransform="matrix(0.9979 -0.0645 0.0645 0.9979 -18.0833 50.9922)">
	<stop  offset="0" style="stop-color:#36CCEB"/>
	<stop  offset="1" style="stop-color:#5436EB"/>
</linearGradient>
<path class="st24" d="M1013.76,787.76c-16.33-85-87.27-148.59-127.5-217.94c-42.04,65.12-70.26,138.33-87.5,213.58
	c-11.07,48.35-16.04,104.18,15.75,142.64c35.05,42.4,106.42,43.94,149.93,9.96C1007.95,902.02,1024.08,841.46,1013.76,787.76z
	 M844.43,913.25c-23.49-10.51-36.58-39.55-35.76-63.79c0.18-5.35,8.6-5.36,8.46,0c-0.62,24.09,12.12,43.23,31.39,56.92
	C852.76,909.39,849.19,915.37,844.43,913.25z M917.68,928.26c-18.37,7.37-40.15,3.02-57.39-5.18c-4.72-2.24-0.59-9.11,4.1-6.9
	c16.99,7.99,33.09,8.11,51.21,4.68C920.63,919.91,922.27,926.42,917.68,928.26z"/>
<linearGradient id="SVGID_26_" gradientUnits="userSpaceOnUse" x1="987.5828" y1="776.8327" x2="1162.9281" y2="776.8327" gradientTransform="matrix(0.9995 -0.0325 0.0325 0.9995 -24.1402 23.3178)">
	<stop  offset="0" style="stop-color:#D62929"/>
	<stop  offset="1" style="stop-color:#D629D3"/>
</linearGradient>
<path class="st25" d="M1159.19,729.19c-8.27-29-29.29-54.11-56.37-67.36c-10.4-5.09-21.53-8.47-32.6-11.83
	c-14.21-4.31-28.31-5.68-43.06-3.94c-7.87,0.93-20.28,3.56-24.62,6.74c-0.07,0.03-0.15,0.06-0.25,0.11
	c-1.59,0.77-3.08,1.72-4.68,2.49c-8.97,4.33-13.76,16.68-11.99,27.11c2.13,12.51,10.48,22.89,17.47,33.49
	c25.88,39.24,35.3,88.97,25.57,134.95c-1.7,8.05-3.89,16.8-0.26,24.18c5.36,10.88,20.28,12.7,32.15,10.22
	c26.31-5.5,47.81-24.14,66.1-43.83c7.37-7.93,14.46-16.19,20.21-25.37C1162.87,790.6,1167.46,758.18,1159.19,729.19z
	 M1100.35,813.95c-8.21,6.36-20.57,10.92-30.8,7.15c-10.99-4.05-14.53-15.14-14.91-25.83c-0.51-14.41-0.15-28.26-3.27-42.48
	c-3.19-14.53-8.6-28.42-15.96-41.34c-0.22-0.22-0.42-0.5-0.58-0.85c-0.98-2.22-1.56-3.64,0.09-5.73c1.08-1.37,2.47-2.54,4.03-3.34
	c0.83-0.42,1.69-0.75,2.56-0.99c3.44-1.39,7.6-1.89,10.61-2.3c12.22-1.64,24.68,0.5,35.89,5.55c20.44,9.2,34.69,28.85,36.92,51.16
	C1127.11,776.78,1117.81,800.41,1100.35,813.95z"/>
</svg>
